<svg xmlns="http://www.w3.org/2000/svg" xmlns:xlink="http://www.w3.org/1999/xlink" preserveAspectRatio="xMidYMid" width="32" height="32" viewBox="0 0 32 32">
  <defs>
    <style>
      .cls-1 {
        fill: #ffc94b;
        fill-rule: evenodd;
      }
    </style>
  </defs>
  <path d="M16.000,32.000 C7.163,32.000 -0.000,24.836 -0.000,16.000 C-0.000,7.163 7.163,-0.000 16.000,-0.000 C24.836,-0.000 32.000,7.163 32.000,16.000 C32.000,24.836 24.836,32.000 16.000,32.000 ZM16.000,2.000 C8.280,2.000 2.000,8.280 2.000,16.000 C2.000,23.720 8.280,30.000 16.000,30.000 C23.719,30.000 30.000,23.720 30.000,16.000 C30.000,8.280 23.719,2.000 16.000,2.000 ZM15.000,13.000 L17.000,13.000 L17.000,24.000 L15.000,24.000 L15.000,13.000 ZM15.000,8.000 L17.000,8.000 L17.000,11.000 L15.000,11.000 L15.000,8.000 Z" class="cls-1"/>
</svg>
