<svg xmlns="http://www.w3.org/2000/svg" xmlns:xlink="http://www.w3.org/1999/xlink" preserveAspectRatio="xMidYMid" width="32" height="32" viewBox="0 0 32 32">
  <defs>
    <style>
      .cls-1 {
        fill: #4caf50;
        fill-rule: evenodd;
      }
    </style>
  </defs>
  <path d="M16.000,32.000 C7.163,32.000 -0.000,24.836 -0.000,16.000 C-0.000,7.163 7.163,-0.000 16.000,-0.000 C24.836,-0.000 32.000,7.163 32.000,16.000 C32.000,24.836 24.836,32.000 16.000,32.000 ZM16.000,2.000 C8.280,2.000 2.000,8.280 2.000,16.000 C2.000,23.719 8.280,30.000 16.000,30.000 C23.719,30.000 30.000,23.719 30.000,16.000 C30.000,8.280 23.719,2.000 16.000,2.000 ZM15.086,21.642 L15.071,21.657 L8.000,14.586 L9.414,13.171 L15.086,18.843 L23.586,10.343 L25.000,11.757 L15.100,21.657 L15.086,21.642 Z" class="cls-1"/>
</svg>
