<svg xmlns="http://www.w3.org/2000/svg" xmlns:xlink="http://www.w3.org/1999/xlink" preserveAspectRatio="xMidYMid" width="32" height="32" viewBox="0 0 32 32">
  <defs>
    <style>
      .cls-1 {
        fill: #ff1c27;
        fill-rule: evenodd;
      }
    </style>
  </defs>
  <path d="M16.000,32.000 C7.163,32.000 -0.000,24.836 -0.000,16.000 C-0.000,7.163 7.163,-0.000 16.000,-0.000 C24.836,-0.000 32.000,7.163 32.000,16.000 C32.000,24.836 24.836,32.000 16.000,32.000 ZM16.000,2.000 C8.280,2.000 2.000,8.280 2.000,16.000 C2.000,23.720 8.280,30.000 16.000,30.000 C23.719,30.000 30.000,23.720 30.000,16.000 C30.000,8.280 23.719,2.000 16.000,2.000 ZM20.950,22.364 L16.000,17.414 L11.050,22.364 L9.636,20.950 L14.586,16.000 L9.636,11.050 L11.050,9.636 L16.000,14.586 L20.950,9.636 L22.364,11.050 L17.414,16.000 L22.364,20.950 L20.950,22.364 Z" class="cls-1"/>
</svg>
